<svg xmlns="http://www.w3.org/2000/svg" id="Icon-Manage-Caregivers" viewBox="0 0 20 20">
    <defs>
        <style>
            .cls-1{fill:#2f3042}
        </style>
    </defs>
    <path id="Path_500" d="M10 20a10 10 0 1 1 10-10 10.014 10.014 0 0 1-10 10zm0-18.361A8.361 8.361 0 1 0 18.361 10 8.343 8.343 0 0 0 10 1.639z" class="cls-1" data-name="Path 500"/>
    <g id="Group_556" data-name="Group 556" transform="translate(4.677 5.153)">
        <g id="Group_555" data-name="Group 555">
            <g id="Group_554" data-name="Group 554">
                <path id="Path_501" d="M16.734 14.059a9.362 9.362 0 0 1 .9-.9 2.76 2.76 0 0 1 4.428 2.541 4.37 4.37 0 0 1-1.562 3.2c-1.27 1.148-2.5 2.254-3.77 3.4-1.352-1.23-2.746-2.459-4.1-3.73a4.1 4.1 0 0 1-1.148-3.811 2.729 2.729 0 0 1 4.467-1.516 7.364 7.364 0 0 1 .785.816z" class="cls-1" data-name="Path 501" transform="translate(-11.411 -12.573)"/>
            </g>
        </g>
    </g>
</svg>
