<svg xmlns="http://www.w3.org/2000/svg" id="Icon-Edit-Patient" viewBox="0 0 20 20">
    <defs>
        <style>
            .cls-1{fill:#2f3042}
        </style>
    </defs>
    <path id="Path_492" d="M10 20a10 10 0 1 1 10-10 10.014 10.014 0 0 1-10 10zm0-18.361A8.361 8.361 0 1 0 18.361 10 8.343 8.343 0 0 0 10 1.639z" class="cls-1" data-name="Path 492"/>
    <path id="Path_356" d="M3.113 9.83H0V6.752l.1-.1c2.169-2.134 4.3-4.3 6.472-6.437.07-.07.175-.14.245-.21H7a1.941 1.941 0 0 1 .28.21c.77.77 1.574 1.539 2.344 2.344a1.923 1.923 0 0 1 .245.315v.14a1.923 1.923 0 0 1-.245.315C7.486 5.457 5.352 7.556 3.253 9.69c-.07 0-.105.07-.14.14zm2.554-7.521c-1.4 1.434-2.834 2.834-4.2 4.233.595.595 1.189 1.224 1.784 1.819 1.4-1.4 2.8-2.834 4.2-4.233-.559-.56-1.189-1.189-1.784-1.819zm3.044.63c-.595-.63-1.224-1.224-1.784-1.819-.175.175-.385.35-.56.525.595.595 1.189 1.224 1.819 1.819.175-.176.385-.351.525-.525zM.945 8.886h1.4l-1.4-1.4v1.4z" class="cls-1" data-name="Path 356" transform="translate(5.166 4.955)"/>
</svg>
