<svg xmlns="http://www.w3.org/2000/svg" id="Ithings-logo" viewBox="0 0 182.456 30.604">
    <defs>
        <style>
            .cls-1{fill:#fff}.cls-2{fill:#bdcbd5}
        </style>
    </defs>
    <path id="Path_701" d="M1.863 5a1.819 1.819 0 0 1 1.863 1.863 1.851 1.851 0 0 1-1.863 1.863A1.851 1.851 0 0 1 0 6.863 1.819 1.819 0 0 1 1.863 5zm-1.49 5.11h3.033v14.956H.373z" class="cls-1" data-name="Path 701" transform="translate(0 -2.339)"/>
    <path id="Path_702" d="M17.023 3.453H11.7V.1h14.1v3.353h-5.211v19.374h-3.566z" class="cls-1" data-name="Path 702" transform="translate(-5.473 -.047)"/>
    <path id="Path_703" d="M43.5 22.78V0h3.034v9.208a5.39 5.39 0 0 1 3.832-1.49c3.673 0 6.014 2.448 6.014 6.334v8.676h-3.033v-7.665c0-3.087-1.011-4.577-3.46-4.577a3.05 3.05 0 0 0-3.353 3.14v9.154z" class="cls-1" data-name="Path 703" transform="translate(-20.347)"/>
    <path id="Path_704" d="M75.763 5A1.863 1.863 0 1 1 73.9 6.863 1.819 1.819 0 0 1 75.763 5zm-1.49 5.11h3.034v14.956h-3.034z" class="cls-1" data-name="Path 704" transform="translate(-34.567 -2.339)"/>
    <path id="Path_705" d="M87.7 29.235v-8.25c0-4.737 2.289-7.185 6.653-7.185 4.418 0 6.653 2.4 6.653 7.185v8.25h-3.087v-8.2c0-2.768-1.277-4.2-3.619-4.2-2.289 0-3.566 1.437-3.566 4.2v8.2z" class="cls-1" data-name="Path 705" transform="translate(-41.021 -6.455)"/>
    <path id="Path_706" d="M125.777 29.661a7.931 7.931 0 1 1 .213-15.861 7.466 7.466 0 0 1 6.493 3.3c1.011 1.544 1.224 3.885 1.224 7.185v4.152c0 5.429-3.247 8.622-8.569 8.622a8.8 8.8 0 0 1-7.132-3.406l2.129-2.129a7.182 7.182 0 0 0 5.482 2.608c3.193 0 5-1.969 5-5.482v-1.011a6.556 6.556 0 0 1-4.84 2.022zm4.79-8.143a4.818 4.818 0 0 0-9.634.16 4.7 4.7 0 0 0 4.79 4.9 4.754 4.754 0 0 0 4.845-5.06z" class="cls-1" data-name="Path 706" transform="translate(-55.147 -6.455)"/>
    <path id="Path_707" d="M153.555 23.966c.8 2.129 1.756 3.087 3.3 3.087a2.2 2.2 0 0 0 2.448-2.182c0-1.437-.958-2.023-2.821-2.661-2.661-.958-3.992-2.182-3.992-4.364a4 4 0 0 1 4.258-4.045 4.286 4.286 0 0 1 4.045 2.768l-2.129 1.118c-.639-1.171-1.171-1.65-2.076-1.65a1.512 1.512 0 0 0-1.544 1.544c0 1.011.692 1.384 1.969 1.863a13.273 13.273 0 0 1 3.406 1.437 4.42 4.42 0 0 1 1.7 3.673c0 2.981-2.129 5.11-5.429 5.11-2.768 0-4.737-1.544-5.7-4.418z" class="cls-1" data-name="Path 707" transform="translate(-70.63 -6.455)"/>
    <path id="Path_708" d="M178.1.1h3.353v8.41h8.889V.1h3.353v22.727h-3.353v-11.39h-8.889v11.39H178.1z" class="cls-2" data-name="Path 708" transform="translate(-83.306 -.047)"/>
    <path id="Path_709" d="M221.277 29.661a7.931 7.931 0 1 1 .16-15.861c4.471 0 7.452 3.194 7.452 8.463 0 .266-.053.479-.053.745h-12.083a4.288 4.288 0 0 0 4.524 3.619 4.815 4.815 0 0 0 3.513-1.384l2.129 2.129a8.505 8.505 0 0 1-5.642 2.289zm4.364-9.368c-.426-2.5-2.023-3.939-4.364-3.939a4.84 4.84 0 0 0-4.684 3.939z" class="cls-2" data-name="Path 709" transform="translate(-99.817 -6.455)"/>
    <path id="Path_710" d="M254.531 29.661a7.6 7.6 0 0 1-7.931-7.931 7.914 7.914 0 0 1 8.2-7.931 7.628 7.628 0 0 1 5.535 2.182 10.807 10.807 0 0 1 2.4 4.577l2.927 8.676h-3.194l-1.171-3.513a7.4 7.4 0 0 1-6.766 3.94zm-4.79-7.771a4.527 4.527 0 0 0 4.79 4.684 4.624 4.624 0 0 0 4.9-4.843 4.779 4.779 0 0 0-4.737-5 4.991 4.991 0 0 0-4.954 5.159z" class="cls-2" data-name="Path 710" transform="translate(-115.347 -6.455)"/>
    <path id="Path_711" d="M286 0h3.087v22.78H286z" class="cls-2" data-name="Path 711" transform="translate(-133.776)"/>
    <path id="Path_712" d="M297.453 11.466H299V7.9h2.981v3.566h3.406v2.661h-3.406v4.737c0 2.927.958 4.311 3.566 4.577v3.087c-4.258-.053-6.6-2.448-6.6-6.76v-5.641H297.4v-2.661z" class="cls-2" data-name="Path 712" transform="translate(-139.108 -3.695)"/>
    <path id="Path_713" d="M318.6 22.78V0h3.034v9.208a5.39 5.39 0 0 1 3.832-1.49c3.673 0 6.014 2.448 6.014 6.334v8.676h-3.034v-7.665c0-3.087-1.011-4.577-3.46-4.577a3.05 3.05 0 0 0-3.353 3.14v9.154z" class="cls-2" data-name="Path 713" transform="translate(-149.024)"/>
</svg>
